<?xml version="1.0" encoding="utf-8"?>
<!-- Generator: Adobe Illustrator 23.0.2, SVG Export Plug-In . SVG Version: 6.00 Build 0)  -->
<svg version="1.1" id="Layer_1" xmlns="http://www.w3.org/2000/svg" xmlns:xlink="http://www.w3.org/1999/xlink" x="0px" y="0px"
	 viewBox="0 0 4680 3120" style="enable-background:new 0 0 4680 3120;" xml:space="preserve">
<style type="text/css">
	.st0{fill:#D3E2F9;}
	.st1{fill:#2263D6;}
	.st2{fill:url(#SVGID_1_);}
	.st3{fill:#FFFFFF;}
	.st4{fill:#DAEBFF;}
	.st5{fill:#00B77B;}
	.st6{fill:#0ACE68;}
	.st7{fill:#00D967;}
	.st8{fill:none;stroke:#FFFFFF;stroke-width:2;stroke-linecap:round;stroke-linejoin:round;}
	.st9{fill:#D1E3FF;}
	.st10{fill:#E3EEFF;}
	.st11{fill:#F5FCFF;}
	.st12{fill:#E2EEFF;}
	.st13{fill:#80C3FF;}
	.st14{fill:#006DFE;}
	.st15{fill:#2636B2;}
	.st16{fill:#EBF5FF;}
	.st17{fill:#7BBDFF;}
	.st18{fill:#054AA9;}
	.st19{fill:none;stroke:#DE4D30;stroke-width:2;stroke-linecap:round;stroke-linejoin:round;}
	.st20{fill:#FFAB00;}
	.st21{fill:#EA756C;}
	.st22{fill:#0E2354;}
	.st23{clip-path:url(#SVGID_3_);}
	.st24{fill:#07183A;}
	.st25{fill:#062F51;}
	.st26{fill:#153077;}
	.st27{fill:#06437F;}
	.st28{fill:#FFACA6;}
	.st29{clip-path:url(#SVGID_5_);}
	.st30{fill:#FE8E00;}
	.st31{clip-path:url(#SVGID_7_);}
	.st32{fill:#1E2889;}
	.st33{clip-path:url(#SVGID_9_);}
	.st34{clip-path:url(#SVGID_11_);}
	.st35{fill:#0041F9;}
	.st36{clip-path:url(#SVGID_13_);}
	.st37{fill:#0054FC;}
	.st38{clip-path:url(#SVGID_15_);}
	.st39{fill:#202D70;}
	.st40{clip-path:url(#SVGID_17_);}
	.st41{fill:#88C9FF;}
	.st42{fill:url(#SVGID_18_);}
</style>
<title>09</title>
<g>
	<g id="Layer_1-2">
		<ellipse class="st0" cx="2546.4" cy="2448.9" rx="237.6" ry="84.3"/>
		<ellipse class="st0" cx="1262.4" cy="2345.5" rx="466.5" ry="51.2"/>
		<rect x="732.2" y="2210.2" class="st0" width="3260" height="20.4"/>
		<path class="st1" d="M3278.2,623.2c0-52.3-42.4-94.8-94.8-94.8c0,0,0,0,0,0H1530c-52.3,0-94.8,42.4-94.8,94.8V673h1842.9V623.2z"
			/>
		
			<linearGradient id="SVGID_1_" gradientUnits="userSpaceOnUse" x1="1435.23" y1="1821.365" x2="3278.1599" y2="1821.365" gradientTransform="matrix(1 0 0 -1 0 3120)">
			<stop  offset="0" style="stop-color:#B0D8FF"/>
			<stop  offset="2.000000e-02" style="stop-color:#B3D9FF"/>
			<stop  offset="0.15" style="stop-color:#C4E1FF"/>
			<stop  offset="0.3" style="stop-color:#D1E7FF"/>
			<stop  offset="0.51" style="stop-color:#D8EAFF"/>
			<stop  offset="1" style="stop-color:#DAEBFF"/>
		</linearGradient>
		<path class="st2" d="M1435.2,673v1156.5c0,52.3,42.4,94.8,94.8,94.8h1653.4c52.3,0,94.8-42.4,94.8-94.8l0,0V673H1435.2z"/>
		<rect x="1569.5" y="1408.2" class="st3" width="86.9" height="326.4"/>
		<rect x="1722.1" y="1450.6" class="st3" width="86.9" height="284"/>
		<rect x="1874.7" y="1535.3" class="st3" width="86.9" height="199.3"/>
		<rect x="2027.3" y="1471.8" class="st3" width="86.9" height="262.8"/>
		<rect x="2180" y="1535.3" class="st3" width="86.9" height="199.3"/>
		<rect x="2332.6" y="1471.8" class="st3" width="86.9" height="262.8"/>
		<rect x="1537.7" y="1762.1" class="st3" width="915.7" height="12.7"/>
		<path class="st3" d="M2270.5,771.7h914.8c10,0,18.2,8.1,18.2,18.2v369.8c0,10-8.1,18.2-18.2,18.2h-914.8c-10,0-18.2-8.1-18.2-18.2
			V789.9C2252.3,779.9,2260.5,771.7,2270.5,771.7C2270.5,771.7,2270.5,771.7,2270.5,771.7z"/>
		<path class="st4" d="M3178,989.2v154.4c0,6.9-5.6,12.5-12.5,12.5h-878.6c-6.9,0-12.5-5.6-12.5-12.5V804.5
			c81.1,0,121.6,30.3,145.2,70.2c1.6,2.5,3,5.1,4.3,7.8c40.1,75.8,28,179.8,116.1,179.8c3.1,0,6.3-0.4,9.3-1.2
			c1.9-0.4,3.7-1,5.4-1.8c59.3-25,50-202.1,155.5-200.9c22.5,0.3,39.4,8.9,52.6,22.7c1.3,1.4,2.6,2.8,3.8,4.3
			c47.2,55.4,47.9,178.9,120.4,201.3c26.1,8.1,49.2-2.9,72-21c1.4-1.2,2.9-2.3,4.4-3.6c48.2-40,96.1-108.4,170.5-91.7
			c2.1,0.5,4.3,1,6.5,1.7C3153.7,976.1,3166.3,981.8,3178,989.2z"/>
		<path class="st5" d="M3178,958c-15.8,0.2-27.9,5.5-37.5,14.1c-17.9,15.9-27.6,43-37,69.5c-14.1,39.7-28.7,80.7-71.2,80.7
			c-2.3,0-4.6-0.1-7.1-0.3c-27.7-2.7-48.2-25.3-66.1-56.2c-11.2-19.2-21.4-41.6-31.8-64.5c-29.4-64.6-59.9-131.4-116.1-133
			c-0.7,0-1.3,0-1.9,0c-17,0-30.9,6.5-42.6,17.2c-23.7,21.6-38.9,60.7-53.6,98.8c-21.9,56.5-44.4,115-95.4,116.1
			c-36.6,0.8-53.3-13.1-68.2-39.3c-5.8-10.2-11.3-22.3-17.6-36c-11.5-25.2-25.9-56.6-49.7-93.2c-16-24.5-36.3-40-58.1-49.4
			c-58.8-25.6-128-6.9-149.6,0.2v-5.8c23.1-7.3,87.8-23.9,145.2-2.2c25.1,9.5,48.8,26.2,67,54.2c24.1,36.8,38.5,68.4,50.2,93.8
			c6.5,14.3,12.1,26.5,18,36.6c14.1,24.3,29.5,36.3,62.7,35.5c47.3-1.1,68.2-55.2,90.4-112.6c15.1-38.9,30.4-78.7,55-101.1
			c13.1-11.9,28.7-19,48.4-18.4c59.7,1.6,90.8,70,121,136.2c10.3,22.5,20.3,44.4,31.2,63.2c17.3,30,36.6,51.8,62.3,54.3
			c43.8,4.3,57.8-35,72.6-76.7c9.2-26,18.6-52.4,35.6-69.3c10.8-10.8,24.9-17.7,43.9-18L3178,958z"/>
		<path class="st3" d="M1542.7,777.2h557.4c12.2,0,22.1,9.9,22.1,22.1l0,0c0,12.2-9.9,22.1-22.1,22.1h-557.4
			c-12.2,0-22.1-9.9-22.1-22.1l0,0C1520.6,787.1,1530.5,777.2,1542.7,777.2z"/>
		<path class="st3" d="M1542.7,873h557.4c12.2,0,22.1,9.9,22.1,22.1l0,0c0,12.2-9.9,22.1-22.1,22.1h-557.4
			c-12.2,0-22.1-9.9-22.1-22.1l0,0C1520.6,882.9,1530.5,873,1542.7,873z"/>
		<path class="st3" d="M1542.7,968.8h557.4c12.2,0,22.1,9.9,22.1,22.1l0,0c0,12.2-9.9,22.1-22.1,22.1h-557.4
			c-12.2,0-22.1-9.9-22.1-22.1l0,0C1520.6,978.7,1530.5,968.8,1542.7,968.8z"/>
		<path class="st3" d="M1542.7,1064.6h557.4c12.2,0,22.1,9.9,22.1,22.1v0c0,12.2-9.9,22.1-22.1,22.1h-557.4
			c-12.2,0-22.1-9.9-22.1-22.1v0C1520.6,1074.5,1530.5,1064.6,1542.7,1064.6z"/>
		<path class="st3" d="M1542.7,1160.4h557.4c12.2,0,22.1,9.9,22.1,22.1v0c0,12.2-9.9,22.1-22.1,22.1h-557.4
			c-12.2,0-22.1-9.9-22.1-22.1v0C1520.6,1170.3,1530.5,1160.4,1542.7,1160.4z"/>
		<path class="st6" d="M3065.4,1534c-22.6-100.1-112-174.9-219-174.9v224.6L3065.4,1534z"/>
		<path class="st3" d="M2846.4,1583.7v-224.6c-124,0-224.6,100.5-224.6,224.6s100.5,224.5,224.6,224.5s224.6-100.5,224.6-224.5
			c0-16.7-1.9-33.4-5.6-49.6L2846.4,1583.7z"/>
		<circle class="st4" cx="2846.4" cy="1587.4" r="171.6"/>
		<circle class="st3" cx="2900.5" cy="600.7" r="24.7"/>
		<circle class="st3" cx="3018.4" cy="600.7" r="24.7"/>
		<circle class="st3" cx="3136.3" cy="600.7" r="24.7"/>
		<path class="st5" d="M1018.8,2226.6c0,0-38.9,77.5-108.1,106.3s-166.3-7.5-220.7-50.3S582.8,2179,577.5,2133.7s86-27.5,86-27.5
			s-40.3-55.1-57.1-94.4s2.9-80.4,58-56l55.2,24.4c0,0-42.3-85.7-41.5-139.1s32.3-133.7,91.7-77.1s65.5,175.4,65.5,175.4
			s13.2-50.6,32-87.7s57.9-32.2,75.9,19.4s24.9,125.5,24.9,125.5s17.2-57,45.4-48c28.1,9,44.5,75.9,39.8,141.5
			S1018.8,2226.6,1018.8,2226.6z"/>
		<path class="st7" d="M1006.5,2087.9c0,0-2.1-282.1-218.2-382.6c0,0-98.9,237,51.3,440.1s119.5,156,119.5,156L1006.5,2087.9z"/>
		<line class="st8" x1="841.7" y1="1837.3" x2="964.6" y2="2256.3"/>
		<rect x="3362" y="669.6" class="st9" width="703" height="898.9"/>
		<rect x="3377.1" y="669.6" class="st10" width="720.1" height="898.9"/>
		<rect x="3362" y="1568.6" class="st9" width="703" height="64.1"/>
		<rect x="3430.6" y="1568.6" class="st10" width="720.1" height="64.1"/>
		<rect x="3422.1" y="717.9" class="st11" width="630.1" height="802.4"/>
		<polygon class="st3" points="3499.4,1520.3 3763.7,717.9 3888.5,717.9 3624.2,1520.3 		"/>
		<path class="st12" d="M3442.9,1248.1c-1.8-0.1-3.3-1.6-3.2-3.4V749.3c-0.1-1.8,1.3-3.3,3-3.4c1.8-0.1,3.3,1.3,3.4,3
			c0,0.1,0,0.2,0,0.4v495.3C3446.2,1246.5,3444.8,1248,3442.9,1248.1C3442.9,1248.1,3442.9,1248.1,3442.9,1248.1z"/>
		<polygon class="st3" points="3651,1520.3 3915.3,717.9 3963.9,717.9 3699.6,1520.3 		"/>
		<rect x="4046.4" y="717.9" class="st9" width="5.7" height="802.4"/>
		<polygon class="st9" points="4107.8,779.6 3404.9,779.6 3400.7,736.7 4103.7,736.7 		"/>
		<polygon class="st9" points="4107.8,811.1 3404.9,811.1 3400.7,768.1 4103.7,768.1 		"/>
		<polygon class="st9" points="4107.8,848.8 3404.9,848.8 3400.7,805.9 4103.7,805.9 		"/>
		<polygon class="st9" points="4107.8,890.8 3404.9,890.8 3400.7,847.9 4103.7,847.9 		"/>
		<polygon class="st9" points="4107.8,941.2 3404.9,941.2 3400.7,898.2 4103.7,898.2 		"/>
		<polygon class="st9" points="4107.8,997.8 3404.9,997.8 3400.7,954.8 4103.7,954.8 		"/>
		<path class="st13" d="M896.8,1604.1h821.8c5.7,0,10.3,4.6,10.3,10.3v135.7c0,5.7-4.6,10.3-10.3,10.3H896.8
			c-5.7,0-10.3-4.6-10.3-10.3v-135.7C886.5,1608.8,891.1,1604.1,896.8,1604.1z"/>
		<ellipse class="st3" cx="970.9" cy="1682.3" rx="17.8" ry="20.9"/>
		<ellipse class="st3" cx="1045.8" cy="1682.3" rx="17.8" ry="20.9"/>
		<ellipse class="st14" cx="1120.6" cy="1682.3" rx="17.8" ry="20.9"/>
		<path class="st4" d="M1511.9,1642.8h16.9c1,0,1.8,0.8,1.8,1.8v76.1c0,1-0.8,1.8-1.8,1.8h-16.9c-1,0-1.8-0.8-1.8-1.8v-76.1
			C1510,1643.6,1510.9,1642.8,1511.9,1642.8z"/>
		<path class="st4" d="M1545.8,1642.8h16.9c1,0,1.8,0.8,1.8,1.8v76.1c0,1-0.8,1.8-1.8,1.8h-16.9c-1,0-1.8-0.8-1.8-1.8v-76.1
			C1543.9,1643.6,1544.7,1642.8,1545.8,1642.8z"/>
		<path class="st4" d="M1579.6,1642.8h16.9c1,0,1.8,0.8,1.8,1.8v76.1c0,1-0.8,1.8-1.8,1.8h-16.9c-1,0-1.8-0.8-1.8-1.8v-76.1
			C1577.8,1643.6,1578.6,1642.8,1579.6,1642.8z"/>
		<path class="st4" d="M1613.5,1642.8h16.9c1,0,1.8,0.8,1.8,1.8v76.1c0,1-0.8,1.8-1.8,1.8h-16.9c-1,0-1.8-0.8-1.8-1.8v-76.1
			C1611.7,1643.6,1612.5,1642.8,1613.5,1642.8z"/>
		<rect x="919.6" y="1760.5" class="st15" width="774.8" height="28.2"/>
		<path class="st13" d="M896.8,1788.7h821.8c5.7,0,10.3,4.6,10.3,10.3v135.7c0,5.7-4.6,10.3-10.3,10.3H896.8
			c-5.7,0-10.3-4.6-10.3-10.3V1799C886.5,1793.3,891.1,1788.7,896.8,1788.7z"/>
		<ellipse class="st3" cx="970.9" cy="1866.8" rx="17.8" ry="20.9"/>
		<ellipse class="st14" cx="1045.8" cy="1866.8" rx="17.8" ry="20.9"/>
		<ellipse class="st14" cx="1120.6" cy="1866.8" rx="17.8" ry="20.9"/>
		<path class="st4" d="M1512.4,1826.8h16.9c1,0,1.8,0.8,1.8,1.8v76.1c0,1-0.8,1.8-1.8,1.8h-16.9c-1,0-1.8-0.8-1.8-1.8v-76.1
			C1510.6,1827.6,1511.4,1826.8,1512.4,1826.8z"/>
		<path class="st4" d="M1546.3,1826.8h16.9c1,0,1.8,0.8,1.8,1.8v76.1c0,1-0.8,1.8-1.8,1.8h-16.9c-1,0-1.8-0.8-1.8-1.8v-76.1
			C1544.4,1827.6,1545.3,1826.8,1546.3,1826.8z"/>
		<path class="st4" d="M1580.2,1826.8h16.9c1,0,1.8,0.8,1.8,1.8v76.1c0,1-0.8,1.8-1.8,1.8h-16.9c-1,0-1.8-0.8-1.8-1.8v-76.1
			C1578.3,1827.6,1579.1,1826.8,1580.2,1826.8z"/>
		<path class="st4" d="M1613.5,1827.3h16.9c1,0,1.8,0.8,1.8,1.8v76.1c0,1-0.8,1.8-1.8,1.8h-16.9c-1,0-1.8-0.8-1.8-1.8v-76.1
			C1611.7,1828.1,1612.5,1827.3,1613.5,1827.3z"/>
		<rect x="919.6" y="1945" class="st15" width="774.8" height="28.2"/>
		<path class="st13" d="M896.8,1973.2h821.8c5.7,0,10.3,4.6,10.3,10.3v135.7c0,5.7-4.6,10.3-10.3,10.3H896.8
			c-5.7,0-10.3-4.6-10.3-10.3v-135.7C886.5,1977.8,891.1,1973.2,896.8,1973.2z"/>
		<ellipse class="st3" cx="970.9" cy="2051.3" rx="17.8" ry="20.9"/>
		<ellipse class="st3" cx="1045.8" cy="2051.3" rx="17.8" ry="20.9"/>
		<ellipse class="st14" cx="1120.6" cy="2051.3" rx="17.8" ry="20.9"/>
		<path class="st4" d="M1512.4,2011.3h16.9c1,0,1.8,0.8,1.8,1.8v76.1c0,1-0.8,1.9-1.8,1.9h-16.9c-1,0-1.8-0.8-1.8-1.9v-76.1
			C1510.6,2012.1,1511.4,2011.3,1512.4,2011.3z"/>
		<path class="st4" d="M1546.3,2011.3h16.9c1,0,1.8,0.8,1.8,1.8v76.1c0,1-0.8,1.9-1.8,1.9h-16.9c-1,0-1.8-0.8-1.8-1.9v-76.1
			C1544.4,2012.1,1545.3,2011.3,1546.3,2011.3z"/>
		<path class="st4" d="M1580.2,2011.3h16.9c1,0,1.8,0.8,1.8,1.8v76.1c0,1-0.8,1.9-1.8,1.9h-16.9c-1,0-1.8-0.8-1.8-1.9v-76.1
			C1578.3,2012.1,1579.1,2011.3,1580.2,2011.3z"/>
		<path class="st4" d="M1614,2011.3h16.9c1,0,1.8,0.8,1.8,1.8v76.1c0,1-0.8,1.9-1.8,1.9H1614c-1,0-1.8-0.8-1.8-1.9v-76.1
			C1612.2,2012.1,1613,2011.3,1614,2011.3z"/>
		<rect x="919.6" y="2129.5" class="st15" width="774.8" height="28.2"/>
		<path class="st13" d="M896.8,2157.7h821.8c5.7,0,10.3,4.6,10.3,10.3v135.7c0,5.7-4.6,10.3-10.3,10.3H896.8
			c-5.7,0-10.3-4.6-10.3-10.3V2168C886.5,2162.3,891.1,2157.7,896.8,2157.7z"/>
		<ellipse class="st3" cx="970.9" cy="2235.8" rx="17.8" ry="20.9"/>
		<ellipse class="st3" cx="1045.8" cy="2235.8" rx="17.8" ry="20.9"/>
		<ellipse class="st14" cx="1120.6" cy="2235.8" rx="17.8" ry="20.9"/>
		<path class="st4" d="M1512.4,2195.8h16.9c1,0,1.8,0.8,1.8,1.9v76.1c0,1-0.8,1.9-1.8,1.9h-16.9c-1,0-1.8-0.8-1.8-1.9v-76.1
			C1510.6,2196.6,1511.4,2195.8,1512.4,2195.8z"/>
		<path class="st4" d="M1546.3,2195.8h16.9c1,0,1.8,0.8,1.8,1.9v76.1c0,1-0.8,1.9-1.8,1.9h-16.9c-1,0-1.8-0.8-1.8-1.9v-76.1
			C1544.4,2196.6,1545.3,2195.8,1546.3,2195.8z"/>
		<path class="st4" d="M1580.2,2195.8h16.9c1,0,1.8,0.8,1.8,1.9v76.1c0,1-0.8,1.9-1.8,1.9h-16.9c-1,0-1.8-0.8-1.8-1.9v-76.1
			C1578.3,2196.6,1579.1,2195.8,1580.2,2195.8z"/>
		<path class="st4" d="M1614,2195.8h16.9c1,0,1.8,0.8,1.8,1.9v76.1c0,1-0.8,1.9-1.8,1.9H1614c-1,0-1.8-0.8-1.8-1.9v-76.1
			C1612.2,2196.6,1613,2195.8,1614,2195.8z"/>
		<rect x="919.6" y="2314" class="st15" width="774.8" height="28.2"/>
		<rect x="3623" y="1828.2" class="st4" width="217.3" height="96.1"/>
		<rect x="3710.9" y="1924.3" class="st16" width="217.3" height="96.1"/>
		<circle class="st17" cx="988.7" cy="852.6" r="266.9"/>
		<circle class="st4" cx="988.7" cy="852.6" r="244.6"/>
		<path class="st18" d="M988.7,860.2c-1.9,0-3.7-0.7-5.2-2L850.8,737.5c-3.2-2.7-3.6-7.6-0.9-10.8s7.6-3.6,10.8-0.9
			c0.1,0.1,0.2,0.2,0.4,0.3l127.7,116.1l98.2-85.8c3.2-2.8,8-2.5,10.8,0.7c2.8,3.2,2.5,8-0.7,10.8l-103.4,90.3
			C992.4,859.6,990.6,860.2,988.7,860.2z"/>
		<rect x="980.4" y="1039.8" class="st18" width="16" height="42.1"/>
		<rect x="980.4" y="623.3" class="st18" width="16" height="42.1"/>
		<rect x="759.1" y="844.6" class="st18" width="42.1" height="16"/>
		<rect x="1175.6" y="844.5" class="st18" width="42.1" height="16"/>
		<line class="st19" x1="988.7" y1="857.4" x2="1053.5" y2="1052.3"/>
		<circle class="st17" cx="988.7" cy="852.6" r="28.2"/>
		<circle class="st20" cx="988.7" cy="852.6" r="16.6"/>
		<path class="st21" d="M1244.5,1121.2L1244.5,1121.2c16.5,5.3,25.5,23,20.1,39.5l-65.4,201.4c-5.3,16.4-23,25.4-39.4,20.1l0,0
			c-16.4-5.3-25.4-23-20.1-39.4l65.4-201.4C1210.4,1124.9,1228,1115.9,1244.5,1121.2z"/>
		<path class="st21" d="M1155.7,1324.7c0,0-168.8,46.8-183,41.6s-59.5-19.3-86.3,7.3s-19.1,44.6,22.8,35.2s40.2,5.4,69.8-11.1
			c0,0,106.1,7.6,199.9-15.5L1155.7,1324.7z"/>
		<path class="st21" d="M1199.9,1014.5l34.7,11c-0.4,7.5,0.3,15.1,2.2,22.3c-9,2.6-22.5,10.3-31.8,32.9c-2.2-10-7.2-24.2-18.6-36.2
			L1199.9,1014.5z"/>
		<path class="st22" d="M1124.4,928.8c0,0-58-9-62.2-72.8c0,0,27.1,7.8,57,3.3s115.3-66.1,168.1,34.6s-62.3,145.2-62.3,145.2
			l-33.4-23.8L1124.4,928.8z"/>
		<g>
			<defs>
				<path id="SVGID_2_" d="M1124.4,928.8c0,0-58-9-62.2-72.8c0,0,27.1,7.8,57,3.3s115.3-66.1,168.1,34.6s-62.3,145.2-62.3,145.2
					l-33.4-23.8L1124.4,928.8z"/>
			</defs>
			<clipPath id="SVGID_3_">
				<use xlink:href="#SVGID_2_"  style="overflow:visible;"/>
			</clipPath>
			<g class="st23">
				<path class="st24" d="M1106.4,928.4c0,0-12.6-32.6,23.3-29.6s60.7,33.6,72.5,56.7s47.4,59.2,77.3,50.9l-30.1,36.4l-92.6,4.8
					l-40.3-87.1L1106.4,928.4z"/>
			</g>
		</g>
		<path class="st25" d="M887.8,1444.6l-17-4.2c0,0-10.7,23.6-9,61.8s21.1,69.3,21.1,69.3s24.3-31.6,24.8-52.3
			S887.8,1444.6,887.8,1444.6z"/>
		<path class="st21" d="M636.1,1713.6c8.2-4.5,15.6-13.1,24.5-21.6c48.7-46.2,109.1-205.6,138.2-226.2s89.8-16.1,89.8-16.1
			l25.1,52.2c0,0-64.8,60.3-115.9,125.4c-53.5,68.3-110.9,126.6-110.9,126.6C673.6,1752.4,649.3,1747.3,636.1,1713.6z"/>
		<path class="st26" d="M515.3,1730.8c8.5-17.1,22.6-18.6,44.2-14.6c17.2,3.2,44.6,14.7,76.7-2.6c13.2,33.7,37.5,38.8,50.8,40.4l0,0
			l-33.6,59.1c-6,11.9-21.1,18.1-32.7,11.6c-26.4-14.6-62.3-32.6-84.7-42.8C502.8,1766.9,506.8,1747.9,515.3,1730.8z"/>
		<path class="st27" d="M1154.8,1463.2l-34.8-27.8l-249.2,5c0,0,46.2,30.7,12,131.1c0,0,91.8,26.2,157.3,28.8s196.7-3,223.4-41.5
			L1154.8,1463.2z"/>
		<path class="st26" d="M928,1460.9l-9.1-3.1c0,0-12,18.8-11.7,51.4s8.6,68.6,23.8,79.7l32.5-56.9l-17.8-57.5L928,1460.9z"/>
		<path class="st28" d="M726.8,1804.9c0.7-0.4,1.4-0.8,2.1-1.3c25.4-16.1,45.5-194,56.2-246.2s44.2-79.6,87-85.7
			c27.3-3.7,54.8-5.2,82.3-4.7v116.4c0,0-81-16.1-83.6,4c-7.4,48.8-92.2,239.5-92.2,239.5l-2.5,7.8
			C762.4,1833.6,743.1,1827.3,726.8,1804.9z"/>
		<path class="st26" d="M604.5,1841.8c10.7-27.4,27.4-28.8,51.5-23.4c23.4,5.2,46.2,1.5,70.9-13.5c16.2,22.4,35.6,28.6,49.3,30
			l-21.2,67.5c-3,9.5-13.2,14.8-22.7,11.8c-0.4-0.1-0.8-0.3-1.1-0.4c-20.4-7.9-53-19.9-69.7-22.5
			C635.9,1887.3,593.7,1869.3,604.5,1841.8z"/>
		<path class="st18" d="M1160.8,1480.6l-34.8-27.8l-207.1,5c0,0,46.2,30.8,12.1,131.2c0,0,93,19.4,158.6,22.1s153.3,3.7,180-34.8
			L1160.8,1480.6z"/>
		<path class="st20" d="M1246.8,1082.8l5.7-5.6c0,0,22.9-6.5,45.3,37.2s72.8,170.9,46.7,291.3s-74.9,170.5-74.9,170.5
			s-149.5,0-149.5-141.4c0,0,81.2-31.1,75.1-135.5s-13.6-111.2,11.7-205.9L1246.8,1082.8z"/>
		<g>
			<defs>
				<path id="SVGID_4_" d="M1246.8,1082.8l5.7-5.6c0,0,22.9-6.5,45.3,37.2s72.8,170.9,46.7,291.3s-74.9,170.5-74.9,170.5
					s-149.5,0-149.5-141.4c0,0,81.2-31.1,75.1-135.5s-13.6-111.2,11.7-205.9L1246.8,1082.8z"/>
			</defs>
			<clipPath id="SVGID_5_">
				<use xlink:href="#SVGID_4_"  style="overflow:visible;"/>
			</clipPath>
			<g class="st29">
				<path class="st30" d="M1156.1,1262.1l52.2-7.6l64.6-86.4c0,0,28.3,146.5-20.3,245.5S1120,1523.4,1120,1523.4l-25.8-117
					L1156.1,1262.1z"/>
			</g>
		</g>
		<path class="st28" d="M1251.7,1136.8L1251.7,1136.8c16.5,5.3,25.5,23,20.1,39.5l-65.4,201.4c-5.3,16.4-23,25.4-39.4,20.1l0,0
			c-16.4-5.3-25.4-23-20.1-39.4l65.4-201.4C1217.6,1140.4,1235.3,1131.4,1251.7,1136.8z"/>
		<path class="st28" d="M1170.6,1338.2c0,0-168.8,46.8-183,41.6s-59.5-19.3-86.3,7.3s-19.1,44.6,22.8,35.2s40.2,5.5,69.8-11.1
			c0,0,98.2,9.6,191.9-13.4L1170.6,1338.2z"/>
		<path class="st22" d="M1098.7,1454.5H876.8c-4.3,0-7.7-3.5-7.7-7.7v-10c0-4.3,3.5-7.7,7.7-7.7h221.9c4.3,0,7.7,3.5,7.7,7.7v10
			C1106.4,1451,1103,1454.5,1098.7,1454.5z"/>
		<path class="st22" d="M774.1,1222.4l98.4,200.9c1.7,3.4,0.3,7.5-3.1,9.1l-2.7,1.3c-3.4,1.7-7.5,0.3-9.1-3.1l-98.4-201
			c-1.7-3.4-0.3-7.5,3.1-9.1l2.7-1.3C768.4,1217.6,772.5,1219,774.1,1222.4z"/>
		<path class="st28" d="M1236.7,1047.9c2.6,11,8,21.1,15.8,29.4c0,0,2,17.9-16.8,21.9s-29-5.7-29-5.7c-0.2-4.3-0.8-8.5-1.8-12.7
			C1214.2,1058.2,1227.8,1050.5,1236.7,1047.9z"/>
		<path class="st28" d="M1118.4,924.5c0,0-14,155.1,32.6,153s53.4-53.2,53.4-53.2s16.6-4.8,13-28.1s-20.1-15.6-21.8-12.8
			C1195.7,983.5,1164.8,909,1118.4,924.5z"/>
		<g>
			<defs>
				<path id="SVGID_6_" d="M1118.4,924.5c0,0-14,155.1,32.6,153s53.4-53.2,53.4-53.2s16.6-4.8,13-28.1s-20.1-15.6-21.8-12.8
					C1195.7,983.5,1164.8,909,1118.4,924.5z"/>
			</defs>
			<clipPath id="SVGID_7_">
				<use xlink:href="#SVGID_6_"  style="overflow:visible;"/>
			</clipPath>
			<g class="st31">
				<path class="st21" d="M1216.3,1023.9c0,0,4.3-21.9-14.9-19.9s-20.9-18.6-36.1-37.1s-26.9-37.5-51.5-27.6l-0.5-23.3l57.4,4.5
					l50,59l0.5,36.3L1216.3,1023.9z"/>
			</g>
		</g>
		<path class="st32" d="M2458.2,2415.9c0,0-7.6,20.4-18.8,30.8c-62.6-25.7-119.8-66.1-141.3-82c1.2-4.8,3.7-10.1,7.2-15.8
			c6.5-10.7,24.7-41.8,37.1-63.2c5.2,10.6,18.8,28.2,54.4,38.9c-11.6,26.9,25,53.8,45.3,67C2462.9,2405,2458.2,2415.9,2458.2,2415.9
			z"/>
		<path class="st21" d="M2413.2,2293.5c0,0-1,1.4-15.4,28.9c-0.4,0.7-0.7,1.4-1,2.1c-35.5-10.7-49.2-28.3-54.4-38.9
			c7.2-12.4,12.5-21.5,12.5-21.5L2413.2,2293.5z"/>
		<path class="st22" d="M2439.4,2446.6c-2.5,2.5-5.5,4.3-8.8,5.4c-15.8,4.6-109.2-53.4-123.2-63.4c-9.2-6.6-11.6-14.5-9.3-24
			C2319.5,2380.6,2376.8,2420.9,2439.4,2446.6z"/>
		<path class="st32" d="M2750.8,2411.1c0,0,2.1,21.6-3.3,35.9c-67.5,4.6-136.7-6.3-163-11.1c-1-5.7-1.2-11.6-0.5-17.4
			c1.1-12.5,3.6-48.4,5.3-73.1c9.3,7.2,29.3,16.9,65.9,10.8c1.5,29.2,46.2,37.2,70.3,40C2750.2,2399.3,2750.8,2411.1,2750.8,2411.1z
			"/>
		<path class="st28" d="M2656.3,2321.3c0,0-0.3,1.7-1,32.7c0,0.8,0,1.5,0.1,2.3c-36.6,6.1-56.6-3.6-65.9-10.8
			c1-14.3,1.7-24.8,1.7-24.8L2656.3,2321.3z"/>
		<path class="st22" d="M2747.6,2447c-1.1,3.3-3,6.3-5.5,8.7c-12.1,11.1-121.6,0.4-138.5-2.4c-11.2-1.9-16.9-7.9-18.9-17.4
			C2610.9,2440.8,2680.1,2451.6,2747.6,2447z"/>
		<polygon class="st20" points="2858.1,1184 2715.7,1129.7 2644.4,1389.9 2774.1,1449.9 		"/>
		<path class="st28" d="M2602.7,976.7c0,0,2.5,86.5-11.1,109.9s-34,15.4-42.6-10.5v-84.6L2602.7,976.7z"/>
		<g>
			<defs>
				<path id="SVGID_8_" d="M2602.7,976.7c0,0,2.5,86.5-11.1,109.9s-34,15.4-42.6-10.5v-84.6L2602.7,976.7z"/>
			</defs>
			<clipPath id="SVGID_9_">
				<use xlink:href="#SVGID_8_"  style="overflow:visible;"/>
			</clipPath>
			<g class="st33">
				<path class="st21" d="M2606.5,985.1c0,0-31.2,22.7-42.4,40.6c-8.4,13.3-4.6,69.6-4.6,69.6l-20.7-9.7c0,0-0.7-38.9,0-58.8
					s14.4-47.5,14.4-47.5s19-20.7,28.9-23.8s17.1,0,17.1,0L2606.5,985.1z"/>
			</g>
		</g>
		<path class="st21" d="M2559.7,1086c0,0-7.7,41.6,3.5,72c0,0-9.1,16.6-28,17.6s-28.6-13.9-28.6-13.9s5.1-19.8,0-52L2559.7,1086z"/>
		<path class="st21" d="M2421.2,1349c0,0-35,37-20.2,60.5s30.5,52.7,30.5,52.7l-2.9,64.6c0,0-79.9-86.4-85.2-115.3
			s13.2-64.6,30.9-91.8L2421.2,1349z"/>
		<path class="st14" d="M2550.8,1786.2V1969c0,0-30.9,135.8-75.3,233.4s-53.1,105-53.1,105s-58,4.9-87.7-37.1
			c0,0,91.4-232.2,92.6-318.6s-19.8-219.8,0-289c1.5-8.4,4.5-16.4,8.6-23.9l88.9,9.1L2550.8,1786.2z"/>
		<g>
			<defs>
				<path id="SVGID_10_" d="M2550.8,1786.2V1969c0,0-30.9,135.8-75.3,233.4s-53.1,105-53.1,105s-58,4.9-87.7-37.1
					c0,0,91.4-232.2,92.6-318.6s-19.8-219.8,0-289c1.5-8.4,4.5-16.4,8.6-23.9l88.9,9.1L2550.8,1786.2z"/>
			</defs>
			<clipPath id="SVGID_11_">
				<use xlink:href="#SVGID_10_"  style="overflow:visible;"/>
			</clipPath>
			<g class="st34">
				<path class="st35" d="M2409.1,1669.8c0,0,54.1,139.6,60.3,228s13.7,229.7-14.8,362.2l117.3-269.5v-232.7l-47-110l-102.5-19.3
					L2409.1,1669.8z"/>
			</g>
		</g>
		<path class="st14" d="M2638.1,1647.9l16.5,5.8c0,0,17.3,149.8,23.5,259.8s-8.6,404.4-8.6,404.4s-51.9,34.6-97.6,0
			c0,0,6.2-183.4-8.6-264.1s-102.9-364.7-98.8-400.1L2638.1,1647.9z"/>
		<g>
			<defs>
				<path id="SVGID_12_" d="M2638.1,1647.9l16.5,5.8c0,0,17.3,149.8,23.5,259.8s-8.6,404.4-8.6,404.4s-51.9,34.6-97.6,0
					c0,0,6.2-183.4-8.6-264.1s-102.9-364.7-98.8-400.1L2638.1,1647.9z"/>
			</defs>
			<clipPath id="SVGID_13_">
				<use xlink:href="#SVGID_12_"  style="overflow:visible;"/>
			</clipPath>
			<g class="st36">
				<path class="st37" d="M2561.9,1657.4c0,0-11.1,47.8,14.8,153.7s38.3,184.7,39.5,271.6s-14.8,277.8-14.8,277.8l-39.5-6.4
					l-130.4-671l53.9-97.4L2561.9,1657.4z"/>
			</g>
		</g>
		<path class="st32" d="M2563.2,1158.1c0,0,74,28.3,81.4,66.6s10,429,10,429s-51.9,40.4-135.8,31.3s-88.9-40.3-88.9-40.3
			s-0.8-262.6,4.1-283.2c0,0-42.8,0-65-39.1c0,0,46.8-111.3,63.8-142c21.2-38.3,73.9-27.8,73.9-27.8S2524,1184.8,2563.2,1158.1z"/>
		<g>
			<defs>
				<path id="SVGID_14_" d="M2563.2,1158.1c0,0,74,28.3,81.4,66.6s10,429,10,429s-51.9,40.4-135.8,31.3s-88.9-40.3-88.9-40.3
					s-0.8-262.6,4.1-283.2c0,0-42.8,0-65-39.1c0,0,46.8-111.3,63.8-142c21.2-38.3,73.9-27.8,73.9-27.8S2524,1184.8,2563.2,1158.1z"
					/>
			</defs>
			<clipPath id="SVGID_15_">
				<use xlink:href="#SVGID_14_"  style="overflow:visible;"/>
			</clipPath>
			<g class="st38">
				<path class="st39" d="M2602.9,1222.4c0,0-21.1-11.9-25.6,8.2s-32.2,172.9,18.3,235.9s65.3,42.4,78.2,7
					S2637.6,1242.5,2602.9,1222.4z"/>
				<path class="st39" d="M2517.9,1151.1c0,0-23.9-4.5-27.2,65s4.1,487.1,11.5,498.1s-89.1-40.9-89.1-40.9s-147.2-380.3-139.8-391
					s228.9-155.6,228.9-155.6L2517.9,1151.1z"/>
			</g>
		</g>
		<path class="st28" d="M2673.1,1356.5c0,0,6.6,54.9,18.8,71.4s111.3-61.1,111.3-61.1s-1.9-66.3,39.5-92.6s11.2,77.4-5.9,105.2
			c0,0-62.8,87.2-122.8,113s-67.1-2.9-76.9-18s-26.9-103.3-26.9-103.3L2673.1,1356.5z"/>
		<g>
			<defs>
				<path id="SVGID_16_" d="M2673.1,1356.5c0,0,6.6,54.9,18.8,71.4s111.3-61.1,111.3-61.1s-1.9-66.3,39.5-92.6s11.2,77.4-5.9,105.2
					c0,0-62.8,87.2-122.8,113s-67.1-2.9-76.9-18s-26.9-103.3-26.9-103.3L2673.1,1356.5z"/>
			</defs>
			<clipPath id="SVGID_17_">
				<use xlink:href="#SVGID_16_"  style="overflow:visible;"/>
			</clipPath>
			<g class="st40">
				<path class="st21" d="M2679.5,1380.7c0,0-45.1,3.8-39.2,32.1s2.6,68.5,48.3,68.6s77.6-24.2,77.6-24.2l-41.2,51.4h-62l-41.7-18.9
					c0,0-27.2-66.8-27.2-71s8.9-55.4,8.9-55.4l67.6-15.1l10.7,22.9L2679.5,1380.7z"/>
			</g>
		</g>
		<path class="st32" d="M2676.2,1353.5c0,0-12.5-104.1-28.4-136.7s-54-30-65.6,0s-9.7,160.6-9.7,160.6S2636,1408.9,2676.2,1353.5z"
			/>
		<path class="st22" d="M2600.5,980.8c0,0,14.8-13.3,18-38.3s8.3-69.5-28.2-75.3s-39.3,11.3-55.5,13.7s-97.8-1.2-122.1,71.4
			c-16.8,50.3,19.7,99.7,49.1,129.7s31.8,30.9,31.8,30.9s21,7,47.1-3.2l14-21.2c0,0,5-6.3-0.5-22s-6.6-30.4,0.3-39.4
			s14.6-25.1,15-38C2569.4,988.8,2583.2,994.3,2600.5,980.8z"/>
		<path class="st41" d="M3004.6,895.2h835c31.9,0,57.8,25.9,57.8,57.8v546.8c0,31.9-25.9,57.8-57.8,57.8h-835
			c-31.9,0-57.8-25.9-57.8-57.8V952.9C2946.8,921,2972.7,895.2,3004.6,895.2z"/>
		<path class="st1" d="M3897.4,951.9c0-31.3-25.4-56.8-56.8-56.8h-822.9c-31.3,0-56.7,25.4-56.7,56.8v34.2h936.4L3897.4,951.9z"/>
		
			<linearGradient id="SVGID_18_" gradientUnits="userSpaceOnUse" x1="2961" y1="1854.6599" x2="3897.4102" y2="1854.6599" gradientTransform="matrix(1 0 0 -1 0 3120)">
			<stop  offset="0" style="stop-color:#B0D8FF"/>
			<stop  offset="2.000000e-02" style="stop-color:#B3D9FF"/>
			<stop  offset="0.15" style="stop-color:#C4E1FF"/>
			<stop  offset="0.3" style="stop-color:#D1E7FF"/>
			<stop  offset="0.51" style="stop-color:#D8EAFF"/>
			<stop  offset="1" style="stop-color:#DAEBFF"/>
		</linearGradient>
		<path class="st42" d="M2961,986.1v501.7c0,31.3,25.4,56.8,56.8,56.8l0,0h822.9c31.3,0,56.8-25.4,56.8-56.8V986.1H2961z"/>
		<circle class="st3" cx="3618.4" cy="940.6" r="19.1"/>
		<circle class="st3" cx="3709" cy="940.6" r="19.1"/>
		<circle class="st3" cx="3799.6" cy="940.6" r="19.1"/>
		<path class="st14" d="M3326.4,1056h-177.9c-3.6,0-6.6-3.4-6.6-7.7l0,0c0-4.3,2.9-7.7,6.6-7.7h177.9c3.6,0,6.5,3.4,6.5,7.7l0,0
			C3332.9,1052.6,3330,1056,3326.4,1056z"/>
		<path class="st7" d="M3297,1125.1h-177.9c-3.6,0-6.6-3.4-6.6-7.7l0,0c0-4.3,2.9-7.7,6.6-7.7H3297c3.6,0,6.6,3.4,6.6,7.7l0,0
			C3303.6,1121.6,3300.6,1125.1,3297,1125.1z"/>
		<path class="st14" d="M3674.3,1125.1h-305.5c-3.6,0-6.6-3.4-6.6-7.7l0,0c0-4.3,2.9-7.7,6.6-7.7h305.5c3.6,0,6.6,3.4,6.6,7.7l0,0
			C3680.8,1121.6,3677.9,1125.1,3674.3,1125.1z"/>
		<path class="st14" d="M3480.2,1056h-89.9c-3.6,0-6.6-3.4-6.6-7.7l0,0c0-4.3,2.9-7.7,6.6-7.7h89.9c3.6,0,6.6,3.4,6.6,7.7l0,0
			C3486.7,1052.6,3483.8,1056,3480.2,1056z"/>
		<path class="st14" d="M3638,1056h-89.9c-3.6,0-6.5-3.4-6.5-7.7l0,0c0-4.3,2.9-7.7,6.5-7.7h89.9c3.6,0,6.5,3.4,6.5,7.7l0,0
			C3644.5,1052.6,3641.6,1056,3638,1056z"/>
		<path class="st14" d="M3238.1,1194.1h-116.9c-3.6,0-6.5-3.4-6.5-7.7l0,0c0-4.3,2.9-7.7,6.5-7.7h116.9c3.6,0,6.5,3.4,6.5,7.7l0,0
			C3244.7,1190.7,3241.8,1194.1,3238.1,1194.1z"/>
		<path class="st7" d="M3480.5,1194.1h-177.9c-3.6,0-6.6-3.4-6.6-7.7l0,0c0-4.3,2.9-7.7,6.6-7.7h177.9c3.6,0,6.6,3.4,6.6,7.7l0,0
			C3487.1,1190.7,3484.1,1194.1,3480.5,1194.1z"/>
		<path class="st14" d="M3610.2,1194.1h-66.4c-3.6,0-6.6-3.4-6.6-7.7l0,0c0-4.3,2.9-7.7,6.6-7.7h66.4c3.6,0,6.6,3.4,6.6,7.7l0,0
			C3616.8,1190.7,3613.8,1194.1,3610.2,1194.1z"/>
		<path class="st14" d="M3348.2,1263.2H3244c-3.6,0-6.6-3.4-6.6-7.7l0,0c0-4.3,2.9-7.7,6.6-7.7h104.2c3.6,0,6.5,3.4,6.5,7.7l0,0
			C3354.7,1259.7,3351.8,1263.2,3348.2,1263.2z"/>
		<path class="st14" d="M3597.5,1263.2h-177.9c-3.6,0-6.6-3.4-6.6-7.7l0,0c0-4.3,2.9-7.7,6.6-7.7h177.9c3.6,0,6.6,3.4,6.6,7.7l0,0
			C3604,1259.7,3601.1,1263.2,3597.5,1263.2z"/>
		<path class="st14" d="M3540.5,1332.2h-333.3c-3.6,0-6.6-3.4-6.6-7.7l0,0c0-4.3,2.9-7.7,6.6-7.7h333.3c3.6,0,6.5,3.4,6.5,7.7l0,0
			C3547,1328.8,3544.1,1332.2,3540.5,1332.2z"/>
		<path class="st14" d="M3789.8,1332.2h-201.4c-3.6,0-6.5-3.4-6.5-7.7l0,0c0-4.3,2.9-7.7,6.5-7.7h201.4c3.6,0,6.6,3.4,6.6,7.7l0,0
			C3796.3,1328.8,3793.4,1332.2,3789.8,1332.2z"/>
		<path class="st14" d="M3297,1401.3h-177.9c-3.6,0-6.6-3.4-6.6-7.7l0,0c0-4.3,2.9-7.7,6.6-7.7H3297c3.6,0,6.6,3.4,6.6,7.7l0,0
			C3303.6,1397.8,3300.6,1401.3,3297,1401.3z"/>
		<path class="st7" d="M3512.3,1401.3h-177.9c-3.6,0-6.6-3.4-6.6-7.7l0,0c0-4.3,2.9-7.7,6.6-7.7h177.9c3.6,0,6.6,3.4,6.6,7.7l0,0
			C3518.8,1397.8,3515.9,1401.3,3512.3,1401.3z"/>
		<path class="st14" d="M3529.4,1470.3h-270.2c-3.6,0-6.6-3.4-6.6-7.7l0,0c0-4.3,2.9-7.7,6.6-7.7h270.2c3.6,0,6.5,3.4,6.5,7.7l0,0
			C3536,1466.8,3533,1470.3,3529.4,1470.3z"/>
		<rect x="3025.6" y="1040.6" class="st14" width="13.1" height="15.4"/>
		<rect x="3025.6" y="1109.7" class="st14" width="13.1" height="15.4"/>
		<rect x="3025.6" y="1178.7" class="st14" width="13.1" height="15.4"/>
		<rect x="3025.6" y="1247.8" class="st14" width="13.1" height="15.4"/>
		<rect x="3025.6" y="1316.8" class="st14" width="13.1" height="15.4"/>
		<rect x="3025.6" y="1385.8" class="st14" width="13.1" height="15.4"/>
		<rect x="3025.6" y="1454.9" class="st14" width="13.1" height="15.4"/>
		<path class="st14" d="M3721,1501.7l-47.7-23.9c-1.6-0.9-2.5-2.5-2.4-4.3v-5.1c-0.1-1.8,0.9-3.5,2.4-4.3l47.7-23.8
			c2.6-1.3,5.6,1,5.6,4.3v1.8c0.1,1.8-0.9,3.5-2.5,4.4l-32.8,15.9c-3.3,1.6-3.3,7.1,0,8.7l32.8,15.9c1.6,0.9,2.5,2.5,2.5,4.3v1.8
			C3726.6,1500.8,3723.6,1503.1,3721,1501.7z"/>
		<path class="st14" d="M3764.2,1426.8l-22,89.7c-0.3,1.9-1.9,3.3-3.8,3.4l0,0c-2.7,0-4.6-3-3.9-6l22-89.7c0.3-1.9,1.9-3.3,3.9-3.4
			l0,0C3763.1,1420.8,3765,1423.8,3764.2,1426.8z"/>
		<path class="st14" d="M3825.5,1477.9l-47.7,23.9c-2.6,1.3-5.6-1-5.6-4.3v-1.8c-0.1-1.8,0.9-3.5,2.5-4.3l32.8-15.9
			c3.3-1.6,3.3-7.1,0-8.7l-32.8-15.9c-1.6-0.9-2.5-2.6-2.5-4.4v-1.8c0-3.4,2.9-5.7,5.6-4.3l47.7,23.8c1.5,0.9,2.5,2.5,2.4,4.3v5.1
			C3828,1475.3,3827,1477,3825.5,1477.9z"/>
	</g>
</g>
</svg>
